<mxfile>
    <diagram id="UQlyg66ZtOKe3yRtYTyh" name="Overview">
        <mxGraphModel dx="7036" dy="5093" grid="1" gridSize="10" guides="1" tooltips="1" connect="1" arrows="1" fold="1" page="1" pageScale="1" pageWidth="827" pageHeight="1169" math="0" shadow="0">
            <root>
                <mxCell id="0"/>
                <mxCell id="1" parent="0"/>
                <mxCell id="4" style="edgeStyle=orthogonalEdgeStyle;rounded=0;orthogonalLoop=1;jettySize=auto;html=1;entryX=0;entryY=0.5;entryDx=0;entryDy=0;fontFamily=Source Sans Pro;fontSource=https%3A%2F%2Ffonts.googleapis.com%2Fcss%3Ffamily%3DSource%2BSans%2BPro;" parent="1" source="2" target="3" edge="1">
                    <mxGeometry relative="1" as="geometry"/>
                </mxCell>
                <mxCell id="26" value="*.collegiumacademicum.de" style="edgeLabel;html=1;align=center;verticalAlign=middle;resizable=0;points=[];fontColor=#FFFFFF;fontFamily=Source Sans Pro;fontSource=https%3A%2F%2Ffonts.googleapis.com%2Fcss%3Ffamily%3DSource%2BSans%2BPro;" parent="4" vertex="1" connectable="0">
                    <mxGeometry x="-0.4571" y="4" relative="1" as="geometry">
                        <mxPoint x="34" y="-1" as="offset"/>
                    </mxGeometry>
                </mxCell>
                <mxCell id="2" value="" style="aspect=fixed;perimeter=ellipsePerimeter;html=1;align=center;shadow=0;dashed=0;spacingTop=3;image;image=img/lib/active_directory/internet_globe.svg;fontFamily=Source Sans Pro;fontSource=https%3A%2F%2Ffonts.googleapis.com%2Fcss%3Ffamily%3DSource%2BSans%2BPro;" parent="1" vertex="1">
                    <mxGeometry x="10" y="280" width="50" height="50" as="geometry"/>
                </mxCell>
                <mxCell id="6" style="edgeStyle=orthogonalEdgeStyle;rounded=0;orthogonalLoop=1;jettySize=auto;html=1;startArrow=block;startFill=1;entryX=0.5;entryY=1;entryDx=0;entryDy=0;entryPerimeter=0;fontFamily=Source Sans Pro;fontSource=https%3A%2F%2Ffonts.googleapis.com%2Fcss%3Ffamily%3DSource%2BSans%2BPro;" parent="1" source="3" target="5" edge="1">
                    <mxGeometry relative="1" as="geometry">
                        <mxPoint x="280" y="200" as="targetPoint"/>
                    </mxGeometry>
                </mxCell>
                <mxCell id="8" value="checks permissions" style="edgeLabel;html=1;align=center;verticalAlign=middle;resizable=0;points=[];fontFamily=Source Sans Pro;fontSource=https%3A%2F%2Ffonts.googleapis.com%2Fcss%3Ffamily%3DSource%2BSans%2BPro;" parent="6" vertex="1" connectable="0">
                    <mxGeometry x="-0.1879" y="-1" relative="1" as="geometry">
                        <mxPoint as="offset"/>
                    </mxGeometry>
                </mxCell>
                <mxCell id="15" style="edgeStyle=orthogonalEdgeStyle;rounded=0;orthogonalLoop=1;jettySize=auto;html=1;entryX=0;entryY=0.5;entryDx=0;entryDy=0;startArrow=block;startFill=1;fontColor=#FFFFFF;fontFamily=Source Sans Pro;fontSource=https%3A%2F%2Ffonts.googleapis.com%2Fcss%3Ffamily%3DSource%2BSans%2BPro;" parent="1" source="3" target="9" edge="1">
                    <mxGeometry relative="1" as="geometry"/>
                </mxCell>
                <mxCell id="18" value="wiki.*" style="edgeLabel;html=1;align=center;verticalAlign=middle;resizable=0;points=[];fontColor=#FFFFFF;fontFamily=Source Sans Pro;fontSource=https%3A%2F%2Ffonts.googleapis.com%2Fcss%3Ffamily%3DSource%2BSans%2BPro;" parent="15" vertex="1" connectable="0">
                    <mxGeometry x="0.5515" y="1" relative="1" as="geometry">
                        <mxPoint x="13" y="0.95" as="offset"/>
                    </mxGeometry>
                </mxCell>
                <mxCell id="16" style="edgeStyle=orthogonalEdgeStyle;rounded=0;orthogonalLoop=1;jettySize=auto;html=1;entryX=0.014;entryY=0.363;entryDx=0;entryDy=0;entryPerimeter=0;startArrow=block;startFill=1;fontColor=#FFFFFF;fontFamily=Source Sans Pro;fontSource=https%3A%2F%2Ffonts.googleapis.com%2Fcss%3Ffamily%3DSource%2BSans%2BPro;" parent="1" source="3" target="14" edge="1">
                    <mxGeometry relative="1" as="geometry"/>
                </mxCell>
                <mxCell id="19" value="chat.*" style="edgeLabel;html=1;align=center;verticalAlign=middle;resizable=0;points=[];fontColor=#FFFFFF;fontFamily=Source Sans Pro;fontSource=https%3A%2F%2Ffonts.googleapis.com%2Fcss%3Ffamily%3DSource%2BSans%2BPro;" parent="16" vertex="1" connectable="0">
                    <mxGeometry x="0.3386" y="-2" relative="1" as="geometry">
                        <mxPoint x="18.58" y="-3.42" as="offset"/>
                    </mxGeometry>
                </mxCell>
                <mxCell id="17" style="edgeStyle=orthogonalEdgeStyle;rounded=0;orthogonalLoop=1;jettySize=auto;html=1;entryX=0;entryY=0.5;entryDx=0;entryDy=0;startArrow=block;startFill=1;fontColor=#FFFFFF;fontFamily=Source Sans Pro;fontSource=https%3A%2F%2Ffonts.googleapis.com%2Fcss%3Ffamily%3DSource%2BSans%2BPro;" parent="1" source="3" target="13" edge="1">
                    <mxGeometry relative="1" as="geometry"/>
                </mxCell>
                <mxCell id="20" value="cloud.*" style="edgeLabel;html=1;align=center;verticalAlign=middle;resizable=0;points=[];fontColor=#FFFFFF;fontFamily=Source Sans Pro;fontSource=https%3A%2F%2Ffonts.googleapis.com%2Fcss%3Ffamily%3DSource%2BSans%2BPro;" parent="17" vertex="1" connectable="0">
                    <mxGeometry x="0.5363" y="3" relative="1" as="geometry">
                        <mxPoint as="offset"/>
                    </mxGeometry>
                </mxCell>
                <mxCell id="24" style="edgeStyle=orthogonalEdgeStyle;rounded=0;orthogonalLoop=1;jettySize=auto;html=1;startArrow=block;startFill=1;fontColor=#FFFFFF;fontFamily=Source Sans Pro;fontSource=https%3A%2F%2Ffonts.googleapis.com%2Fcss%3Ffamily%3DSource%2BSans%2BPro;" parent="1" source="3" target="23" edge="1">
                    <mxGeometry relative="1" as="geometry">
                        <mxPoint x="500" y="590" as="targetPoint"/>
                        <Array as="points">
                            <mxPoint x="390" y="305"/>
                            <mxPoint x="390" y="500"/>
                            <mxPoint x="500" y="500"/>
                            <mxPoint x="500" y="496"/>
                        </Array>
                    </mxGeometry>
                </mxCell>
                <mxCell id="25" value="mumble.*" style="edgeLabel;html=1;align=center;verticalAlign=middle;resizable=0;points=[];fontColor=#FFFFFF;fontFamily=Source Sans Pro;fontSource=https%3A%2F%2Ffonts.googleapis.com%2Fcss%3Ffamily%3DSource%2BSans%2BPro;" parent="24" vertex="1" connectable="0">
                    <mxGeometry x="0.6101" y="3" relative="1" as="geometry">
                        <mxPoint x="15" as="offset"/>
                    </mxGeometry>
                </mxCell>
                <mxCell id="3" value="nginx&lt;br&gt;" style="aspect=fixed;perimeter=ellipsePerimeter;html=1;align=center;shadow=0;dashed=0;spacingTop=3;image;image=img/lib/active_directory/web_server.svg;fontFamily=Source Sans Pro;fontSource=https%3A%2F%2Ffonts.googleapis.com%2Fcss%3Ffamily%3DSource%2BSans%2BPro;" parent="1" vertex="1">
                    <mxGeometry x="230" y="280" width="40" height="50" as="geometry"/>
                </mxCell>
                <mxCell id="5" value="KeyCloak IAM" style="outlineConnect=0;dashed=0;verticalLabelPosition=bottom;verticalAlign=top;align=center;html=1;shape=mxgraph.aws3.checklist_security;fillColor=#759C3E;gradientColor=none;fontFamily=Source Sans Pro;fontSource=https%3A%2F%2Ffonts.googleapis.com%2Fcss%3Ffamily%3DSource%2BSans%2BPro;" parent="1" vertex="1">
                    <mxGeometry x="223" y="110" width="54" height="69" as="geometry"/>
                </mxCell>
                <mxCell id="51" style="edgeStyle=orthogonalEdgeStyle;rounded=0;orthogonalLoop=1;jettySize=auto;html=1;entryX=0.5;entryY=0;entryDx=0;entryDy=0;entryPerimeter=0;startArrow=block;startFill=1;fontFamily=Source Sans Pro;fontSource=https%3A%2F%2Ffonts.googleapis.com%2Fcss%3Ffamily%3DSource%2BSans%2BPro;fontSize=11;fontColor=#FFFFFF;" parent="1" source="9" target="49" edge="1">
                    <mxGeometry relative="1" as="geometry"/>
                </mxCell>
                <mxCell id="9" value="DokuWiki" style="aspect=fixed;perimeter=ellipsePerimeter;html=1;align=center;shadow=0;dashed=0;spacingTop=3;image;image=img/lib/active_directory/wiki_site.svg;fontFamily=Source Sans Pro;fontSource=https%3A%2F%2Ffonts.googleapis.com%2Fcss%3Ffamily%3DSource%2BSans%2BPro;" parent="1" vertex="1">
                    <mxGeometry x="511.66999999999996" y="371.25" width="50" height="50" as="geometry"/>
                </mxCell>
                <mxCell id="21" style="edgeStyle=orthogonalEdgeStyle;rounded=0;orthogonalLoop=1;jettySize=auto;html=1;entryX=0.78;entryY=0.37;entryDx=0;entryDy=0;entryPerimeter=0;startArrow=block;startFill=1;fontColor=#FFFFFF;fontFamily=Source Sans Pro;fontSource=https%3A%2F%2Ffonts.googleapis.com%2Fcss%3Ffamily%3DSource%2BSans%2BPro;" parent="1" source="13" target="5" edge="1">
                    <mxGeometry relative="1" as="geometry">
                        <Array as="points">
                            <mxPoint x="535" y="136"/>
                        </Array>
                    </mxGeometry>
                </mxCell>
                <mxCell id="22" value="sync profile infromation" style="edgeLabel;html=1;align=center;verticalAlign=middle;resizable=0;points=[];fontColor=#FFFFFF;fontFamily=Source Sans Pro;fontSource=https%3A%2F%2Ffonts.googleapis.com%2Fcss%3Ffamily%3DSource%2BSans%2BPro;" parent="21" vertex="1" connectable="0">
                    <mxGeometry x="0.1876" y="-1" relative="1" as="geometry">
                        <mxPoint as="offset"/>
                    </mxGeometry>
                </mxCell>
                <mxCell id="30" style="edgeStyle=orthogonalEdgeStyle;rounded=0;orthogonalLoop=1;jettySize=auto;html=1;exitX=1;exitY=0.5;exitDx=0;exitDy=0;startArrow=block;startFill=1;fontColor=#FFFFFF;fontFamily=Source Sans Pro;fontSource=https%3A%2F%2Ffonts.googleapis.com%2Fcss%3Ffamily%3DSource%2BSans%2BPro;" parent="1" source="13" target="29" edge="1">
                    <mxGeometry relative="1" as="geometry"/>
                </mxCell>
                <mxCell id="50" style="edgeStyle=orthogonalEdgeStyle;rounded=0;orthogonalLoop=1;jettySize=auto;html=1;entryX=0.5;entryY=0;entryDx=0;entryDy=0;entryPerimeter=0;startArrow=block;startFill=1;fontFamily=Source Sans Pro;fontSource=https%3A%2F%2Ffonts.googleapis.com%2Fcss%3Ffamily%3DSource%2BSans%2BPro;fontSize=11;fontColor=#FFFFFF;" parent="1" source="13" target="49" edge="1">
                    <mxGeometry relative="1" as="geometry">
                        <Array as="points">
                            <mxPoint x="580" y="226"/>
                            <mxPoint x="580" y="290"/>
                            <mxPoint x="768" y="290"/>
                        </Array>
                    </mxGeometry>
                </mxCell>
                <mxCell id="13" value="NextCloud&lt;br&gt;" style="aspect=fixed;perimeter=ellipsePerimeter;html=1;align=center;shadow=0;dashed=0;spacingTop=3;image;image=img/lib/active_directory/internet_cloud.svg;fillColor=#0079D6;fontColor=#FFFFFF;fontFamily=Source Sans Pro;fontSource=https%3A%2F%2Ffonts.googleapis.com%2Fcss%3Ffamily%3DSource%2BSans%2BPro;" parent="1" vertex="1">
                    <mxGeometry x="510" y="210" width="50" height="31.5" as="geometry"/>
                </mxCell>
                <mxCell id="41" style="edgeStyle=orthogonalEdgeStyle;rounded=0;orthogonalLoop=1;jettySize=auto;html=1;startArrow=block;startFill=1;fontColor=#FFFFFF;entryX=1.143;entryY=0.582;entryDx=0;entryDy=0;entryPerimeter=0;fontFamily=Source Sans Pro;fontSource=https%3A%2F%2Ffonts.googleapis.com%2Fcss%3Ffamily%3DSource%2BSans%2BPro;" parent="1" source="14" target="38" edge="1">
                    <mxGeometry relative="1" as="geometry">
                        <mxPoint x="650" y="580" as="targetPoint"/>
                        <Array as="points">
                            <mxPoint x="660" y="305"/>
                            <mxPoint x="660" y="586"/>
                        </Array>
                    </mxGeometry>
                </mxCell>
                <mxCell id="52" style="edgeStyle=orthogonalEdgeStyle;rounded=0;orthogonalLoop=1;jettySize=auto;html=1;entryX=0.5;entryY=0;entryDx=0;entryDy=0;entryPerimeter=0;startArrow=block;startFill=1;fontFamily=Source Sans Pro;fontSource=https%3A%2F%2Ffonts.googleapis.com%2Fcss%3Ffamily%3DSource%2BSans%2BPro;fontSize=11;fontColor=#FFFFFF;" parent="1" source="14" target="49" edge="1">
                    <mxGeometry relative="1" as="geometry"/>
                </mxCell>
                <mxCell id="53" value="&lt;i&gt;cold-storage&lt;br&gt;off-site&lt;br&gt;backups&lt;br&gt;B2/S3&lt;/i&gt;" style="edgeLabel;html=1;align=center;verticalAlign=middle;resizable=0;points=[];fontSize=11;fontFamily=Source Sans Pro;fontColor=#FFFFFF;" parent="52" vertex="1" connectable="0">
                    <mxGeometry x="0.4191" y="-2" relative="1" as="geometry">
                        <mxPoint y="1" as="offset"/>
                    </mxGeometry>
                </mxCell>
                <mxCell id="14" value="Rocket.Chat" style="html=1;verticalLabelPosition=bottom;align=center;labelBackgroundColor=none;verticalAlign=top;strokeWidth=2;strokeColor=#0080F0;shadow=0;dashed=0;shape=mxgraph.ios7.icons.chat;fillColor=#0079D6;fontColor=#FFFFFF;fontFamily=Source Sans Pro;fontSource=https%3A%2F%2Ffonts.googleapis.com%2Fcss%3Ffamily%3DSource%2BSans%2BPro;" parent="1" vertex="1">
                    <mxGeometry x="511.66999999999996" y="291.25" width="46.67" height="28" as="geometry"/>
                </mxCell>
                <mxCell id="23" value="Mumble" style="html=1;verticalLabelPosition=bottom;align=center;labelBackgroundColor=none;verticalAlign=top;strokeWidth=2;strokeColor=#0080F0;shadow=0;dashed=0;shape=mxgraph.ios7.icons.microphone;fillColor=#0079D6;fontColor=#FFFFFF;fontFamily=Source Sans Pro;fontSource=https%3A%2F%2Ffonts.googleapis.com%2Fcss%3Ffamily%3DSource%2BSans%2BPro;" parent="1" vertex="1">
                    <mxGeometry x="530.67" y="490" width="12" height="30" as="geometry"/>
                </mxCell>
                <mxCell id="32" style="edgeStyle=orthogonalEdgeStyle;rounded=0;orthogonalLoop=1;jettySize=auto;html=1;entryX=1;entryY=0.5;entryDx=0;entryDy=0;startArrow=block;startFill=1;fontColor=#FFFFFF;fontFamily=Source Sans Pro;fontSource=https%3A%2F%2Ffonts.googleapis.com%2Fcss%3Ffamily%3DSource%2BSans%2BPro;" parent="1" source="27" target="13" edge="1">
                    <mxGeometry relative="1" as="geometry"/>
                </mxCell>
                <mxCell id="27" value="Contacts" style="pointerEvents=1;shadow=0;dashed=0;html=1;strokeColor=none;fillColor=#505050;labelPosition=center;verticalLabelPosition=bottom;verticalAlign=top;outlineConnect=0;align=center;shape=mxgraph.office.concepts.contacts;labelBackgroundColor=none;fontColor=#FFFFFF;fontFamily=Source Sans Pro;fontSource=https%3A%2F%2Ffonts.googleapis.com%2Fcss%3Ffamily%3DSource%2BSans%2BPro;" parent="1" vertex="1">
                    <mxGeometry x="680" y="101.5" width="40.77" height="30" as="geometry"/>
                </mxCell>
                <mxCell id="33" style="edgeStyle=orthogonalEdgeStyle;rounded=0;orthogonalLoop=1;jettySize=auto;html=1;entryX=1;entryY=0.5;entryDx=0;entryDy=0;startArrow=block;startFill=1;fontColor=#FFFFFF;fontFamily=Source Sans Pro;fontSource=https%3A%2F%2Ffonts.googleapis.com%2Fcss%3Ffamily%3DSource%2BSans%2BPro;" parent="1" source="28" target="13" edge="1">
                    <mxGeometry relative="1" as="geometry"/>
                </mxCell>
                <mxCell id="28" value="Calendar&lt;br&gt;" style="pointerEvents=1;shadow=0;dashed=0;html=1;strokeColor=none;fillColor=#505050;labelPosition=center;verticalLabelPosition=bottom;verticalAlign=top;outlineConnect=0;align=center;shape=mxgraph.office.concepts.calendar;labelBackgroundColor=none;fontColor=#FFFFFF;fontFamily=Source Sans Pro;fontSource=https%3A%2F%2Ffonts.googleapis.com%2Fcss%3Ffamily%3DSource%2BSans%2BPro;" parent="1" vertex="1">
                    <mxGeometry x="680" y="160.5" width="31.37" height="29" as="geometry"/>
                </mxCell>
                <mxCell id="29" value="Tasks&lt;br&gt;" style="outlineConnect=0;gradientColor=none;fillColor=#D05C17;strokeColor=none;dashed=0;verticalLabelPosition=bottom;verticalAlign=top;align=center;html=1;fontSize=12;fontStyle=0;aspect=fixed;pointerEvents=1;shape=mxgraph.aws4.ecs_task;labelBackgroundColor=none;fontColor=#FFFFFF;fontFamily=Source Sans Pro;fontSource=https%3A%2F%2Ffonts.googleapis.com%2Fcss%3Ffamily%3DSource%2BSans%2BPro;" parent="1" vertex="1">
                    <mxGeometry x="680" y="211.5" width="22.69" height="30" as="geometry"/>
                </mxCell>
                <mxCell id="36" style="edgeStyle=orthogonalEdgeStyle;rounded=0;orthogonalLoop=1;jettySize=auto;html=1;entryX=0.39;entryY=0;entryDx=0;entryDy=0;entryPerimeter=0;startArrow=block;startFill=1;fontColor=#FFFFFF;dashed=1;fontFamily=Source Sans Pro;fontSource=https%3A%2F%2Ffonts.googleapis.com%2Fcss%3Ffamily%3DSource%2BSans%2BPro;" parent="1" source="35" target="5" edge="1">
                    <mxGeometry relative="1" as="geometry"/>
                </mxCell>
                <mxCell id="48" value="maybe?" style="edgeLabel;html=1;align=center;verticalAlign=middle;resizable=0;points=[];fontSize=11;fontFamily=Source Sans Pro;fontColor=#FFFFFF;fontSource=https%3A%2F%2Ffonts.googleapis.com%2Fcss%3Ffamily%3DSource%2BSans%2BPro;" parent="36" vertex="1" connectable="0">
                    <mxGeometry x="-0.3672" y="3" relative="1" as="geometry">
                        <mxPoint as="offset"/>
                    </mxGeometry>
                </mxCell>
                <mxCell id="35" value="Unifi WPS" style="html=1;verticalLabelPosition=bottom;align=center;labelBackgroundColor=none;verticalAlign=top;strokeWidth=2;strokeColor=#0080F0;shadow=0;dashed=0;shape=mxgraph.ios7.icons.wifi;pointerEvents=1;fillColor=#0079D6;fontColor=#FFFFFF;fontFamily=Source Sans Pro;fontSource=https%3A%2F%2Ffonts.googleapis.com%2Fcss%3Ffamily%3DSource%2BSans%2BPro;" parent="1" vertex="1">
                    <mxGeometry x="40" y="20" width="100" height="70.71" as="geometry"/>
                </mxCell>
                <mxCell id="42" style="edgeStyle=orthogonalEdgeStyle;rounded=0;orthogonalLoop=1;jettySize=auto;html=1;startArrow=block;startFill=1;fontColor=#FFFFFF;entryX=1;entryY=0.5;entryDx=0;entryDy=0;fontFamily=Source Sans Pro;fontSource=https%3A%2F%2Ffonts.googleapis.com%2Fcss%3Ffamily%3DSource%2BSans%2BPro;" parent="1" source="38" target="3" edge="1">
                    <mxGeometry relative="1" as="geometry">
                        <mxPoint x="330.0000000000001" y="370" as="targetPoint"/>
                        <Array as="points">
                            <mxPoint x="390" y="585"/>
                            <mxPoint x="390" y="305"/>
                        </Array>
                    </mxGeometry>
                </mxCell>
                <mxCell id="43" value="call.*" style="edgeLabel;html=1;align=center;verticalAlign=middle;resizable=0;points=[];fontColor=#FFFFFF;fontFamily=Source Sans Pro;fontSource=https%3A%2F%2Ffonts.googleapis.com%2Fcss%3Ffamily%3DSource%2BSans%2BPro;" parent="42" vertex="1" connectable="0">
                    <mxGeometry x="-0.6542" y="-1" relative="1" as="geometry">
                        <mxPoint x="21.67" y="1.5" as="offset"/>
                    </mxGeometry>
                </mxCell>
                <mxCell id="44" value="reverse proxy" style="edgeLabel;html=1;align=center;verticalAlign=middle;resizable=0;points=[];fontColor=#FFFFFF;fontFamily=Source Sans Pro;fontSource=https%3A%2F%2Ffonts.googleapis.com%2Fcss%3Ffamily%3DSource%2BSans%2BPro;" parent="42" vertex="1" connectable="0">
                    <mxGeometry x="0.8275" relative="1" as="geometry">
                        <mxPoint x="24.5" as="offset"/>
                    </mxGeometry>
                </mxCell>
                <mxCell id="38" value="BBB/Jitsi" style="html=1;verticalLabelPosition=bottom;align=center;labelBackgroundColor=none;verticalAlign=top;strokeWidth=2;strokeColor=#0080F0;shadow=0;dashed=0;shape=mxgraph.ios7.icons.video_conversation;fillColor=#0079D6;fontColor=#FFFFFF;fontFamily=Source Sans Pro;fontSource=https%3A%2F%2Ffonts.googleapis.com%2Fcss%3Ffamily%3DSource%2BSans%2BPro;" parent="1" vertex="1">
                    <mxGeometry x="520" y="577" width="30" height="15" as="geometry"/>
                </mxCell>
                <mxCell id="45" value="Implentations&lt;br&gt;&lt;br&gt;&lt;table style=&quot;text-align: left ; font-size: 13px&quot;&gt;&lt;tbody&gt;&lt;tr&gt;&lt;td&gt;&lt;font color=&quot;#80ff00&quot;&gt;nginx&lt;/font&gt;&lt;/td&gt;&lt;td&gt;&lt;font color=&quot;#3399ff&quot;&gt;docker:linuxserver/swag&lt;/font&gt;&lt;/td&gt;&lt;/tr&gt;&lt;tr&gt;&lt;td&gt;&lt;font color=&quot;#0066cc&quot;&gt;nextcloud&lt;/font&gt;&lt;/td&gt;&lt;td&gt;&lt;font color=&quot;#3399ff&quot;&gt;docker:linuxserver/nextcloud&lt;/font&gt;&lt;/td&gt;&lt;/tr&gt;&lt;tr&gt;&lt;td&gt;&lt;font color=&quot;#cc0000&quot;&gt;rocket.chat&lt;/font&gt;&lt;/td&gt;&lt;td&gt;&lt;font color=&quot;#3399ff&quot;&gt;docker:rocket.chat&lt;/font&gt;&lt;/td&gt;&lt;/tr&gt;&lt;tr&gt;&lt;td&gt;&lt;font color=&quot;#ff8000&quot;&gt;dokuwiki&lt;/font&gt;&lt;/td&gt;&lt;td&gt;&lt;font color=&quot;#3399ff&quot;&gt;docker:linuxserver/dokuwiki&lt;/font&gt;&lt;/td&gt;&lt;/tr&gt;&lt;tr&gt;&lt;td&gt;&lt;font color=&quot;#999999&quot;&gt;mumble&lt;/font&gt;&lt;/td&gt;&lt;td&gt;&lt;font color=&quot;#3399ff&quot;&gt;docker:phlak/mumble ???&lt;/font&gt;&lt;/td&gt;&lt;/tr&gt;&lt;tr&gt;&lt;td&gt;&lt;font color=&quot;#6600cc&quot;&gt;BBB&lt;/font&gt;/&lt;font color=&quot;#cc0000&quot;&gt;Jitsi&lt;/font&gt;&lt;/td&gt;&lt;td&gt;????&lt;/td&gt;&lt;/tr&gt;&lt;tr&gt;&lt;td&gt;&lt;font color=&quot;#009900&quot;&gt;KeyCloak&lt;/font&gt;&lt;/td&gt;&lt;td&gt;&lt;font color=&quot;#3399ff&quot;&gt;docker:jboss/keycloak&lt;/font&gt;&lt;/td&gt;&lt;/tr&gt;&lt;tr&gt;&lt;td&gt;Mail&lt;/td&gt;&lt;td&gt;????&lt;/td&gt;&lt;/tr&gt;&lt;tr&gt;&lt;td&gt;NewsLetter&lt;/td&gt;&lt;td&gt;&lt;br&gt;&lt;/td&gt;&lt;/tr&gt;&lt;/tbody&gt;&lt;/table&gt;" style="rounded=0;whiteSpace=wrap;html=1;labelBackgroundColor=none;fontColor=#FFFFFF;align=center;fontFamily=Source Sans Pro;fontSource=https%3A%2F%2Ffonts.googleapis.com%2Fcss%3Ffamily%3DSource%2BSans%2BPro;verticalAlign=top;fontSize=20;fillColor=none;strokeWidth=7;" parent="1" vertex="1">
                    <mxGeometry x="40" y="481" width="280" height="360" as="geometry"/>
                </mxCell>
                <mxCell id="49" value="" style="outlineConnect=0;dashed=0;verticalLabelPosition=bottom;verticalAlign=top;align=center;html=1;shape=mxgraph.aws3.s3;fillColor=#E05243;gradientColor=none;labelBackgroundColor=none;strokeWidth=7;fontFamily=Source Sans Pro;fontSource=https%3A%2F%2Ffonts.googleapis.com%2Fcss%3Ffamily%3DSource%2BSans%2BPro;fontSize=11;fontColor=#FFFFFF;" parent="1" vertex="1">
                    <mxGeometry x="730" y="630" width="76.5" height="93" as="geometry"/>
                </mxCell>
                <mxCell id="55" style="edgeStyle=orthogonalEdgeStyle;rounded=0;orthogonalLoop=1;jettySize=auto;html=1;entryX=1;entryY=0.5;entryDx=0;entryDy=0;startArrow=classicThin;startFill=1;" edge="1" parent="1" source="54" target="3">
                    <mxGeometry relative="1" as="geometry">
                        <mxPoint x="270" y="340" as="targetPoint"/>
                        <Array as="points">
                            <mxPoint x="390" y="648"/>
                            <mxPoint x="390" y="305"/>
                        </Array>
                    </mxGeometry>
                </mxCell>
                <mxCell id="56" value="mail.*" style="edgeLabel;html=1;align=center;verticalAlign=middle;resizable=0;points=[];" vertex="1" connectable="0" parent="55">
                    <mxGeometry x="-0.7785" y="2" relative="1" as="geometry">
                        <mxPoint x="-4.17" y="-2" as="offset"/>
                    </mxGeometry>
                </mxCell>
                <mxCell id="54" value="Webmail&lt;br&gt;" style="html=1;verticalLabelPosition=bottom;align=center;labelBackgroundColor=none;verticalAlign=top;strokeWidth=2;strokeColor=#0080F0;shadow=0;dashed=0;shape=mxgraph.ios7.icons.mail;" vertex="1" parent="1">
                    <mxGeometry x="520" y="640" width="30" height="16.5" as="geometry"/>
                </mxCell>
                <mxCell id="58" style="edgeStyle=orthogonalEdgeStyle;rounded=0;orthogonalLoop=1;jettySize=auto;html=1;entryX=1;entryY=0.5;entryDx=0;entryDy=0;startArrow=classicThin;startFill=1;" edge="1" parent="1" source="57" target="3">
                    <mxGeometry relative="1" as="geometry">
                        <mxPoint x="340" y="440" as="targetPoint"/>
                        <Array as="points">
                            <mxPoint x="390" y="720"/>
                            <mxPoint x="390" y="305"/>
                        </Array>
                    </mxGeometry>
                </mxCell>
                <mxCell id="59" value="lists.*" style="edgeLabel;html=1;align=center;verticalAlign=middle;resizable=0;points=[];" vertex="1" connectable="0" parent="58">
                    <mxGeometry x="-0.7636" y="-2" relative="1" as="geometry">
                        <mxPoint x="11.66" as="offset"/>
                    </mxGeometry>
                </mxCell>
                <mxCell id="57" value="PHPLists" style="dashed=0;outlineConnect=0;html=1;align=center;labelPosition=center;verticalLabelPosition=bottom;verticalAlign=top;shape=mxgraph.weblogos.rss;fillColor=#F56800;strokeColor=none;labelBackgroundColor=none;" vertex="1" parent="1">
                    <mxGeometry x="516.67" y="700" width="40" height="40" as="geometry"/>
                </mxCell>
            </root>
        </mxGraphModel>
    </diagram>
</mxfile>